# xmcd
#
# Track frame offsets: 
#        150
#        21008
#        43911
#        70630
#        99097
#        113778
#        136524
#        152790
#        178652
#        197613
#        211415
#        219943
#        230379
#
# Disc length: 3212 seconds
#
# Revision: 0
# Processed by: cddbd v1.5.2PL0 Copyright (c) Steve Scherf et al.
# Submitted via: ExactAudioCopyFreeDBPlugin 1.0
#
DISCID=a40c8a0d
DTITLE=Junior Wells - Sexy Bitch -3- Chuckin' and Jivin'
DYEAR=2018
DGENRE=Blues
TTITLE0=Key To The Highway
TTITLE1=Mystery Train
TTITLE2=Goin' Down Slow
TTITLE3=I Don't Know
TTITLE4=It's A Man Down There
TTITLE5=Worried Life Blues
TTITLE6=Juke
TTITLE7=Baby, Scratch My Back
TTITLE8=Love With A Feeling
TTITLE9=I'll Get You Too
TTITLE10=When The Cat's Gone The Mice Play
TTITLE11=You Don't Care
TTITLE12=Cha Cha Cha In Blue (Cut My Toenail)
EXTD=
EXTT0=
EXTT1=
EXTT2=
EXTT3=
EXTT4=
EXTT5=
EXTT6=
EXTT7=
EXTT8=
EXTT9=
EXTT10=
EXTT11=
EXTT12=
PLAYORDER=
